<!--?xml version="1.0" encoding="utf-8"?-->
<!-- Generator: Adobe Illustrator 18.1.1, SVG Export Plug-In . SVG Version: 6.00 Build 0)  -->

<svg version="1.1" id="_x31_0" xmlns="http://www.w3.org/2000/svg" xmlns:xlink="http://www.w3.org/1999/xlink" x="0px" y="0px" viewBox="0 0 512 512" style="width: 256px; height: 256px; opacity: 1;" xml:space="preserve">
<style type="text/css">
	.st0{fill:#374149;}
</style>
<g>
	<path class="st0" d="M133.466,170.794H66.073C29.583,170.794,0,200.377,0,236.87s29.583,66.069,66.073,66.069h67.393V170.794z" style="fill: rgb(75, 75, 75);"></path>
	<path class="st0" d="M186.278,313.858L360.806,139.25V84.818l0.086-27.546l-0.086,0.049v-0.194L186.444,159.818
		c-11.531,6.804-18.583,19.166-18.583,32.605v88.92C167.861,294.612,174.828,306.973,186.278,313.858z" style="fill: rgb(75, 75, 75);"></path>
	<polygon class="st0" points="360.806,281.161 360.806,280.93 292.651,349.149 275.616,366.14 275.652,366.165 275.534,366.286 
		360.806,416.55 360.806,337.266 360.923,281.043 	" style="fill: rgb(75, 75, 75);"></polygon>
	<polygon class="st0" points="488.204,59.038 488.2,59.038 488.2,59.038 488.087,58.916 116.05,430.954 139.962,454.874 512,82.837 
			" style="fill: rgb(75, 75, 75);"></polygon>
</g>
</svg>
